<?xml version="1.0" standalone="no"?>
<!DOCTYPE svg PUBLIC "-//W3C//DTD SVG 20010904//EN"
 "http://www.w3.org/TR/2001/REC-SVG-20010904/DTD/svg10.dtd">
<svg version="1.0" xmlns="http://www.w3.org/2000/svg"
 width="700.000000pt" height="700.000000pt" viewBox="0 0 700.000000 700.000000"
 preserveAspectRatio="xMidYMid meet">
<metadata>
Created by potrace 1.11, written by Peter Selinger 2001-2013
</metadata>
<g transform="translate(0.000000,700.000000) scale(0.100000,-0.100000)"
fill="#000000" stroke="none">
<path d="M4672 6116 c-19 -5 -45 -25 -60 -44 l-27 -35 0 -239 0 -238 36 -36
c66 -66 163 -53 205 28 26 49 28 441 3 498 -27 60 -90 86 -157 66z"/>
<path d="M5813 5647 c-13 -7 -90 -79 -172 -160 -167 -164 -183 -190 -160 -259
19 -58 69 -93 133 -93 l51 0 160 163 c93 95 164 175 169 192 12 41 0 91 -32
129 -23 28 -36 34 -77 37 -30 3 -59 -1 -72 -9z"/>
<path d="M3545 5631 c-30 -13 -75 -61 -81 -88 -4 -13 -3 -40 0 -61 6 -31 31
-60 159 -185 84 -81 165 -155 181 -164 68 -36 168 10 182 83 11 62 -9 93 -175
258 -150 150 -161 158 -202 162 -24 2 -53 0 -64 -5z"/>
<path d="M4585 5253 c-186 -35 -318 -104 -450 -237 -87 -87 -133 -158 -182
-276 -49 -121 -73 -287 -49 -345 15 -35 67 -65 111 -65 29 0 84 47 86 74 1 9
2 19 4 24 1 4 5 25 9 47 32 162 84 265 185 366 292 291 758 233 968 -121 79
-132 104 -280 76 -443 -26 -151 -87 -241 -238 -355 -76 -57 -85 -69 -85 -108
0 -24 8 -39 31 -58 67 -57 160 -30 268 76 117 115 185 226 233 378 20 64 23
94 22 210 -1 115 -5 148 -28 222 -24 81 -51 147 -87 208 -24 42 -112 153 -138
176 -15 12 -37 32 -51 44 -63 55 -169 116 -253 145 -133 45 -309 60 -432 38z"/>
<path d="M5875 4516 c-46 -20 -67 -51 -73 -104 -5 -60 16 -105 61 -129 47 -25
456 -25 504 0 45 24 63 54 63 107 0 57 -29 107 -75 126 -47 19 -435 20 -480 0z"/>
<path d="M3757 4124 c-1 -1 -36 -4 -77 -8 -80 -7 -126 -13 -149 -22 -8 -2 -30
-7 -50 -10 -46 -7 -209 -68 -286 -107 -164 -82 -349 -239 -448 -379 -22 -32
-44 -58 -49 -58 -5 0 -25 7 -46 16 -82 34 -201 53 -321 49 -137 -4 -158 -7
-276 -46 -80 -27 -230 -103 -261 -133 -6 -6 -33 -29 -59 -51 -61 -50 -151
-162 -197 -246 -72 -129 -114 -287 -117 -442 -1 -20 -8 -30 -28 -39 -157 -64
-247 -122 -353 -227 -159 -157 -248 -328 -296 -571 -12 -61 -10 -252 2 -320
61 -320 249 -580 527 -730 111 -60 225 -96 367 -116 57 -7 3386 -7 3460 1 346
36 671 300 784 635 24 73 28 89 46 195 26 147 -10 356 -90 520 -119 247 -372
451 -626 505 -102 22 -96 18 -89 53 13 70 13 314 -1 402 -24 156 -95 347 -181
490 -31 52 -129 178 -175 225 -223 231 -525 378 -833 406 -81 7 -174 11 -178
8z m223 -308 c14 -3 39 -8 55 -12 426 -85 764 -458 813 -894 11 -102 3 -295
-14 -321 -3 -5 -7 -20 -10 -33 -2 -13 -22 -82 -44 -152 -22 -71 -37 -131 -32
-134 4 -4 48 -4 97 -1 174 12 259 4 360 -33 116 -42 227 -123 307 -225 39 -49
94 -167 113 -240 21 -81 21 -227 1 -306 -52 -200 -211 -382 -397 -455 -121
-48 -71 -47 -1885 -45 -1872 2 -1733 -3 -1883 58 -182 74 -339 245 -406 442
-34 101 -46 236 -30 337 43 269 236 499 491 582 53 17 60 19 134 31 68 11 82
14 86 18 3 3 -10 95 -21 147 -11 50 -6 189 9 247 22 85 42 129 92 204 87 132
217 224 374 264 67 18 181 22 262 11 66 -8 146 -40 214 -84 83 -53 155 -94
158 -90 2 1 26 48 56 103 169 319 418 509 755 575 87 17 282 20 345 6z"/>
<path d="M5538 3638 c-38 -22 -68 -69 -68 -107 0 -44 42 -100 182 -238 144
-143 172 -163 231 -163 79 0 139 101 108 182 -9 23 -259 281 -315 326 -37 28
-89 28 -138 0z"/>
</g>
</svg>
